<svg xmlns="http://www.w3.org/2000/svg" xmlns:xlink="http://www.w3.org/1999/xlink" width="500" zoomAndPan="magnify" viewBox="0 0 375 374.999991" height="500" preserveAspectRatio="xMidYMid meet" version="1.0"><defs><g/><clipPath id="4f050e5140"><path d="M 130.304688 161.582031 L 180.554688 161.582031 L 180.554688 213.332031 L 130.304688 213.332031 Z M 130.304688 161.582031 " clip-rule="nonzero"/></clipPath><clipPath id="6fb4129d48"><path d="M 0.238281 3 L 12 3 L 12 12 L 0.238281 12 Z M 0.238281 3 " clip-rule="nonzero"/></clipPath><clipPath id="c791aabae0"><rect x="0" width="240" y="0" height="15"/></clipPath></defs><rect x="-37.5" width="450" fill="#ffffff" y="-37.499999" height="449.999989" fill-opacity="1"/><rect x="-37.5" width="450" fill="#ffd522" y="-37.499999" height="449.999989" fill-opacity="1"/><g fill="#000000" fill-opacity="1"><g transform="translate(50.594463, 207.808213)"><g><path d="M 30.140625 -69.5625 C 33.835938 -69.5625 37.453125 -69.019531 40.984375 -67.9375 C 44.523438 -66.863281 47.148438 -65.804688 48.859375 -64.765625 L 51.34375 -63.109375 L 45.046875 -50.6875 C 44.554688 -51.007812 43.867188 -51.429688 42.984375 -51.953125 C 42.097656 -52.484375 40.441406 -53.191406 38.015625 -54.078125 C 35.585938 -54.960938 33.320312 -55.40625 31.21875 -55.40625 C 28.625 -55.40625 26.625 -54.851562 25.21875 -53.75 C 23.8125 -52.644531 23.109375 -51.15625 23.109375 -49.28125 C 23.109375 -48.332031 23.4375 -47.457031 24.09375 -46.65625 C 24.757812 -45.863281 25.890625 -45.007812 27.484375 -44.09375 C 29.085938 -43.1875 30.5 -42.457031 31.71875 -41.90625 C 32.9375 -41.351562 34.8125 -40.523438 37.34375 -39.421875 C 41.757812 -37.546875 45.523438 -34.992188 48.640625 -31.765625 C 51.765625 -28.535156 53.328125 -24.875 53.328125 -20.78125 C 53.328125 -16.863281 52.625 -13.441406 51.21875 -10.515625 C 49.8125 -7.585938 47.878906 -5.296875 45.421875 -3.640625 C 42.960938 -1.984375 40.242188 -0.753906 37.265625 0.046875 C 34.285156 0.847656 31.054688 1.25 27.578125 1.25 C 24.597656 1.25 21.671875 0.941406 18.796875 0.328125 C 15.929688 -0.273438 13.53125 -1.03125 11.59375 -1.9375 C 9.664062 -2.851562 7.925781 -3.753906 6.375 -4.640625 C 4.832031 -5.523438 3.703125 -6.269531 2.984375 -6.875 L 1.90625 -7.78125 L 9.6875 -20.875 C 10.351562 -20.320312 11.265625 -19.613281 12.421875 -18.75 C 13.578125 -17.894531 15.628906 -16.75 18.578125 -15.3125 C 21.535156 -13.882812 24.148438 -13.171875 26.421875 -13.171875 C 32.984375 -13.171875 36.265625 -15.40625 36.265625 -19.875 C 36.265625 -20.8125 36.03125 -21.679688 35.5625 -22.484375 C 35.09375 -23.285156 34.265625 -24.085938 33.078125 -24.890625 C 31.890625 -25.691406 30.84375 -26.328125 29.9375 -26.796875 C 29.03125 -27.265625 27.539062 -27.976562 25.46875 -28.9375 C 23.394531 -29.90625 21.863281 -30.640625 20.875 -31.140625 C 16.726562 -33.179688 13.523438 -35.734375 11.265625 -38.796875 C 9.003906 -41.859375 7.875 -45.15625 7.875 -48.6875 C 7.875 -54.820312 10.132812 -59.832031 14.65625 -63.71875 C 19.1875 -67.613281 24.347656 -69.5625 30.140625 -69.5625 Z M 30.140625 -69.5625 "/></g></g></g><g fill="#000000" fill-opacity="1"><g transform="translate(99.779667, 207.808213)"><g><path d="M 7.453125 -42.484375 L 7.453125 -58.296875 L 22.109375 -58.296875 L 22.109375 -42.484375 L 31.0625 -42.484375 L 31.0625 -31.296875 L 22.109375 -31.296875 L 22.109375 -17.8125 C 22.109375 -13.882812 23.210938 -11.921875 25.421875 -11.921875 C 25.972656 -11.921875 26.550781 -12.03125 27.15625 -12.25 C 27.769531 -12.476562 28.242188 -12.703125 28.578125 -12.921875 L 29.0625 -13.25 L 32.71875 -1.40625 C 29.5625 0.363281 25.972656 1.25 21.953125 1.25 C 19.191406 1.25 16.816406 0.765625 14.828125 -0.203125 C 12.835938 -1.171875 11.332031 -2.46875 10.3125 -4.09375 C 9.289062 -5.726562 8.554688 -7.441406 8.109375 -9.234375 C 7.671875 -11.023438 7.453125 -12.941406 7.453125 -14.984375 L 7.453125 -31.296875 L 1.328125 -31.296875 L 1.328125 -42.484375 Z M 7.453125 -42.484375 "/></g></g></g><g fill="#000000" fill-opacity="1"><g transform="translate(126.027983, 207.808213)"><g><path d="M 7.859375 -5.25 C 3.890625 -9.59375 1.90625 -14.910156 1.90625 -21.203125 C 1.90625 -27.492188 3.890625 -32.816406 7.859375 -37.171875 C 11.835938 -41.535156 16.890625 -43.71875 23.015625 -43.71875 C 28.648438 -43.71875 33.289062 -41.953125 36.9375 -38.421875 L 36.9375 -42.484375 L 51.59375 -42.484375 L 51.59375 0 L 37.09375 0 L 37.09375 -4.796875 L 36.9375 -4.796875 C 33.289062 -0.765625 28.648438 1.25 23.015625 1.25 C 16.890625 1.25 11.835938 -0.914062 7.859375 -5.25 Z M 20.328125 -28.40625 C 18.421875 -26.53125 17.46875 -24.128906 17.46875 -21.203125 C 17.46875 -18.273438 18.378906 -15.882812 20.203125 -14.03125 C 22.023438 -12.1875 24.425781 -11.265625 27.40625 -11.265625 C 30.28125 -11.265625 32.640625 -12.203125 34.484375 -14.078125 C 36.335938 -15.953125 37.265625 -18.328125 37.265625 -21.203125 C 37.265625 -24.128906 36.3125 -26.53125 34.40625 -28.40625 C 32.5 -30.28125 30.164062 -31.21875 27.40625 -31.21875 C 24.59375 -31.21875 22.234375 -30.28125 20.328125 -28.40625 Z M 20.328125 -28.40625 "/></g></g></g><g fill="#000000" fill-opacity="1"><g transform="translate(176.124034, 207.808213)"><g><path d="M 4.96875 0 L 4.96875 -42.484375 L 19.625 -42.484375 L 19.625 -36.359375 L 19.796875 -36.359375 C 19.898438 -36.578125 20.078125 -36.851562 20.328125 -37.1875 C 20.578125 -37.519531 21.113281 -38.097656 21.9375 -38.921875 C 22.769531 -39.753906 23.65625 -40.5 24.59375 -41.15625 C 25.53125 -41.820312 26.742188 -42.414062 28.234375 -42.9375 C 29.722656 -43.457031 31.242188 -43.71875 32.796875 -43.71875 C 34.398438 -43.71875 35.972656 -43.5 37.515625 -43.0625 C 39.054688 -42.625 40.1875 -42.179688 40.90625 -41.734375 L 42.0625 -41.078125 L 35.9375 -28.65625 C 34.113281 -30.195312 31.578125 -30.96875 28.328125 -30.96875 C 26.554688 -30.96875 25.035156 -30.582031 23.765625 -29.8125 C 22.492188 -29.039062 21.597656 -28.101562 21.078125 -27 C 20.554688 -25.894531 20.179688 -24.953125 19.953125 -24.171875 C 19.734375 -23.398438 19.625 -22.796875 19.625 -22.359375 L 19.625 0 Z M 4.96875 0 "/></g></g></g><g fill="#000000" fill-opacity="1"><g transform="translate(210.90123, 207.808213)"><g><path d="M 7.453125 -42.484375 L 7.453125 -58.296875 L 22.109375 -58.296875 L 22.109375 -42.484375 L 31.0625 -42.484375 L 31.0625 -31.296875 L 22.109375 -31.296875 L 22.109375 -17.8125 C 22.109375 -13.882812 23.210938 -11.921875 25.421875 -11.921875 C 25.972656 -11.921875 26.550781 -12.03125 27.15625 -12.25 C 27.769531 -12.476562 28.242188 -12.703125 28.578125 -12.921875 L 29.0625 -13.25 L 32.71875 -1.40625 C 29.5625 0.363281 25.972656 1.25 21.953125 1.25 C 19.191406 1.25 16.816406 0.765625 14.828125 -0.203125 C 12.835938 -1.171875 11.332031 -2.46875 10.3125 -4.09375 C 9.289062 -5.726562 8.554688 -7.441406 8.109375 -9.234375 C 7.671875 -11.023438 7.453125 -12.941406 7.453125 -14.984375 L 7.453125 -31.296875 L 1.328125 -31.296875 L 1.328125 -42.484375 Z M 7.453125 -42.484375 "/></g></g></g><g fill="#000000" fill-opacity="1"><g transform="translate(237.149546, 207.808213)"><g><path d="M 18.796875 -42.484375 L 18.796875 -22.28125 C 18.796875 -18.082031 19.429688 -15.097656 20.703125 -13.328125 C 21.972656 -11.566406 24.125 -10.6875 27.15625 -10.6875 C 30.195312 -10.6875 32.351562 -11.566406 33.625 -13.328125 C 34.894531 -15.097656 35.53125 -18.082031 35.53125 -22.28125 L 35.53125 -42.484375 L 50.1875 -42.484375 L 50.1875 -18.71875 C 50.1875 -11.644531 48.347656 -6.546875 44.671875 -3.421875 C 41.003906 -0.304688 35.164062 1.25 27.15625 1.25 C 19.15625 1.25 13.316406 -0.304688 9.640625 -3.421875 C 5.972656 -6.546875 4.140625 -11.644531 4.140625 -18.71875 L 4.140625 -42.484375 Z M 18.796875 -42.484375 "/></g></g></g><g fill="#000000" fill-opacity="1"><g transform="translate(285.009867, 207.808213)"><g><path d="M 48.6875 -37.21875 C 52.664062 -32.882812 54.65625 -27.570312 54.65625 -21.28125 C 54.65625 -14.988281 52.664062 -9.660156 48.6875 -5.296875 C 44.71875 -0.929688 39.671875 1.25 33.546875 1.25 C 27.910156 1.25 23.269531 -0.519531 19.625 -4.0625 L 19.625 21.53125 L 4.96875 21.53125 L 4.96875 -42.484375 L 19.46875 -42.484375 L 19.46875 -37.6875 L 19.625 -37.6875 C 23.269531 -41.707031 27.910156 -43.71875 33.546875 -43.71875 C 39.671875 -43.71875 44.71875 -41.550781 48.6875 -37.21875 Z M 36.234375 -14.078125 C 38.140625 -15.953125 39.09375 -18.351562 39.09375 -21.28125 C 39.09375 -24.207031 38.179688 -26.59375 36.359375 -28.4375 C 34.535156 -30.289062 32.132812 -31.21875 29.15625 -31.21875 C 26.28125 -31.21875 23.914062 -30.28125 22.0625 -28.40625 C 20.21875 -26.53125 19.296875 -24.15625 19.296875 -21.28125 C 19.296875 -18.351562 20.25 -15.953125 22.15625 -14.078125 C 24.0625 -12.203125 26.394531 -11.265625 29.15625 -11.265625 C 31.96875 -11.265625 34.328125 -12.203125 36.234375 -14.078125 Z M 36.234375 -14.078125 "/></g></g></g><g clip-path="url(#4f050e5140)"><path fill="#ffd522" d="M 180.769531 187.09375 L 173.328125 187.09375 C 160.589844 184.335938 157.753906 181.492188 155 168.734375 L 155 161.582031 L 154.058594 161.582031 L 154.058594 168.808594 C 151.304688 181.503906 148.457031 184.339844 135.742188 187.09375 L 130.3125 187.09375 L 130.3125 188.035156 L 135.742188 188.035156 C 148.457031 190.785156 151.304688 193.621094 154.058594 206.320312 L 154.058594 213.414062 L 155 213.414062 L 155 206.394531 C 157.753906 193.632812 160.589844 190.792969 173.328125 188.035156 L 180.769531 188.035156 Z M 180.769531 187.09375 " fill-opacity="1" fill-rule="nonzero"/></g><g transform="matrix(1, 0, 0, 1, 78, 249)"><g clip-path="url(#c791aabae0)"><g clip-path="url(#6fb4129d48)"><g fill="#000000" fill-opacity="1"><g transform="translate(0.341836, 11.504273)"><g><path d="M 0.6875 -0.53125 C 0.6875 -0.53125 0.679688 -0.535156 0.671875 -0.546875 C 0.660156 -0.554688 0.65625 -0.570312 0.65625 -0.59375 C 0.65625 -0.613281 0.648438 -0.632812 0.640625 -0.65625 C 0.597656 -1.207031 0.585938 -1.769531 0.609375 -2.34375 C 0.992188 -2.03125 1.414062 -1.773438 1.875 -1.578125 C 2.34375 -1.390625 2.820312 -1.25 3.3125 -1.15625 C 3.800781 -1.0625 4.289062 -1 4.78125 -0.96875 C 5.28125 -0.945312 5.773438 -0.941406 6.265625 -0.953125 C 6.640625 -0.960938 7.015625 -0.976562 7.390625 -1 C 7.765625 -1.03125 8.132812 -1.085938 8.5 -1.171875 C 8.6875 -1.210938 8.867188 -1.28125 9.046875 -1.375 C 9.234375 -1.476562 9.347656 -1.625 9.390625 -1.8125 C 9.429688 -1.96875 9.40625 -2.113281 9.3125 -2.25 C 9.226562 -2.394531 9.117188 -2.507812 8.984375 -2.59375 C 8.847656 -2.664062 8.703125 -2.710938 8.546875 -2.734375 C 8.398438 -2.765625 8.25 -2.789062 8.09375 -2.8125 C 7.332031 -2.863281 6.570312 -2.890625 5.8125 -2.890625 C 5.050781 -2.890625 4.296875 -2.914062 3.546875 -2.96875 C 3.265625 -2.988281 2.984375 -3.015625 2.703125 -3.046875 C 2.421875 -3.085938 2.144531 -3.160156 1.875 -3.265625 C 1.613281 -3.359375 1.363281 -3.488281 1.125 -3.65625 C 0.894531 -3.820312 0.710938 -4.03125 0.578125 -4.28125 C 0.378906 -4.613281 0.300781 -4.984375 0.34375 -5.390625 C 0.382812 -5.796875 0.53125 -6.140625 0.78125 -6.421875 C 0.988281 -6.648438 1.222656 -6.828125 1.484375 -6.953125 C 1.753906 -7.085938 2.035156 -7.191406 2.328125 -7.265625 C 2.984375 -7.441406 3.65625 -7.550781 4.34375 -7.59375 C 5.03125 -7.644531 5.710938 -7.660156 6.390625 -7.640625 C 7.109375 -7.628906 7.832031 -7.582031 8.5625 -7.5 C 9.289062 -7.414062 9.984375 -7.222656 10.640625 -6.921875 C 10.679688 -6.898438 10.722656 -6.875 10.765625 -6.84375 C 10.804688 -6.820312 10.835938 -6.789062 10.859375 -6.75 C 10.878906 -6.71875 10.890625 -6.679688 10.890625 -6.640625 C 10.890625 -6.597656 10.890625 -6.554688 10.890625 -6.515625 C 10.890625 -6.265625 10.882812 -6.007812 10.875 -5.75 C 10.875 -5.5 10.875 -5.242188 10.875 -4.984375 C 10.664062 -5.191406 10.429688 -5.363281 10.171875 -5.5 C 9.910156 -5.644531 9.640625 -5.769531 9.359375 -5.875 C 9.222656 -5.914062 9.082031 -5.957031 8.9375 -6 C 8.789062 -6.050781 8.640625 -6.085938 8.484375 -6.109375 C 8.390625 -6.140625 8.296875 -6.164062 8.203125 -6.1875 C 8.117188 -6.21875 8.03125 -6.242188 7.9375 -6.265625 C 7.84375 -6.273438 7.75 -6.273438 7.65625 -6.265625 C 7.570312 -6.265625 7.484375 -6.265625 7.390625 -6.265625 C 6.941406 -6.304688 6.488281 -6.328125 6.03125 -6.328125 C 5.582031 -6.335938 5.128906 -6.320312 4.671875 -6.28125 C 4.222656 -6.25 3.773438 -6.179688 3.328125 -6.078125 C 3.210938 -6.046875 3.09375 -6.007812 2.96875 -5.96875 C 2.84375 -5.9375 2.734375 -5.882812 2.640625 -5.8125 C 2.546875 -5.738281 2.46875 -5.644531 2.40625 -5.53125 C 2.34375 -5.414062 2.316406 -5.296875 2.328125 -5.171875 C 2.359375 -4.960938 2.472656 -4.804688 2.671875 -4.703125 C 2.867188 -4.597656 3.066406 -4.523438 3.265625 -4.484375 C 3.898438 -4.367188 4.539062 -4.300781 5.1875 -4.28125 C 5.84375 -4.269531 6.492188 -4.257812 7.140625 -4.25 C 7.796875 -4.25 8.441406 -4.195312 9.078125 -4.09375 C 9.328125 -4.0625 9.566406 -4.007812 9.796875 -3.9375 C 10.035156 -3.875 10.265625 -3.78125 10.484375 -3.65625 C 10.691406 -3.519531 10.875 -3.351562 11.03125 -3.15625 C 11.195312 -2.957031 11.300781 -2.738281 11.34375 -2.5 C 11.375 -2.34375 11.378906 -2.1875 11.359375 -2.03125 C 11.335938 -1.882812 11.3125 -1.738281 11.28125 -1.59375 C 11.25 -1.457031 11.207031 -1.320312 11.15625 -1.1875 C 11.113281 -1.0625 11.050781 -0.945312 10.96875 -0.84375 C 10.84375 -0.675781 10.6875 -0.539062 10.5 -0.4375 C 10.320312 -0.332031 10.132812 -0.242188 9.9375 -0.171875 C 9.164062 0.109375 8.367188 0.269531 7.546875 0.3125 C 6.722656 0.351562 5.898438 0.359375 5.078125 0.328125 C 4.359375 0.304688 3.628906 0.25 2.890625 0.15625 C 2.160156 0.0625 1.460938 -0.140625 0.796875 -0.453125 C 0.742188 -0.484375 0.707031 -0.507812 0.6875 -0.53125 Z M 0.6875 -0.53125 "/></g></g></g></g><g fill="#000000" fill-opacity="1"><g transform="translate(15.248624, 11.504273)"><g><path d="M 1.0625 -3.359375 C 1.050781 -3.523438 1.046875 -3.691406 1.046875 -3.859375 C 1.054688 -4.035156 1.0625 -4.210938 1.0625 -4.390625 C 1.082031 -4.828125 1.085938 -5.265625 1.078125 -5.703125 C 1.066406 -6.148438 1.046875 -6.59375 1.015625 -7.03125 C 1.003906 -7.09375 1.003906 -7.15625 1.015625 -7.21875 C 1.035156 -7.28125 1.070312 -7.320312 1.125 -7.34375 C 1.164062 -7.375 1.234375 -7.375 1.328125 -7.34375 C 1.617188 -7.289062 1.894531 -7.273438 2.15625 -7.296875 C 2.28125 -7.304688 2.40625 -7.328125 2.53125 -7.359375 C 2.664062 -7.390625 2.78125 -7.390625 2.875 -7.359375 C 2.96875 -7.328125 3.015625 -7.21875 3.015625 -7.03125 C 3.015625 -6.539062 3.007812 -6.054688 3 -5.578125 C 3 -5.097656 3 -4.613281 3 -4.125 C 2.988281 -3.90625 2.988281 -3.6875 3 -3.46875 C 3.007812 -3.25 3.035156 -3.035156 3.078125 -2.828125 C 3.117188 -2.609375 3.191406 -2.398438 3.296875 -2.203125 C 3.398438 -2.015625 3.53125 -1.847656 3.6875 -1.703125 C 3.851562 -1.578125 4.03125 -1.476562 4.21875 -1.40625 C 4.40625 -1.332031 4.597656 -1.273438 4.796875 -1.234375 C 5.304688 -1.117188 5.820312 -1.054688 6.34375 -1.046875 C 6.863281 -1.035156 7.378906 -1.070312 7.890625 -1.15625 C 8.148438 -1.195312 8.410156 -1.257812 8.671875 -1.34375 C 8.941406 -1.4375 9.171875 -1.582031 9.359375 -1.78125 C 9.523438 -1.96875 9.644531 -2.175781 9.71875 -2.40625 C 9.789062 -2.632812 9.835938 -2.878906 9.859375 -3.140625 C 9.878906 -3.398438 9.882812 -3.65625 9.875 -3.90625 C 9.863281 -4.414062 9.851562 -4.929688 9.84375 -5.453125 C 9.84375 -5.972656 9.835938 -6.488281 9.828125 -7 C 9.828125 -7.039062 9.828125 -7.082031 9.828125 -7.125 C 9.835938 -7.175781 9.859375 -7.21875 9.890625 -7.25 C 9.921875 -7.289062 9.960938 -7.316406 10.015625 -7.328125 C 10.078125 -7.335938 10.132812 -7.34375 10.1875 -7.34375 L 11.421875 -7.34375 C 11.460938 -7.34375 11.507812 -7.335938 11.5625 -7.328125 C 11.613281 -7.328125 11.660156 -7.3125 11.703125 -7.28125 C 11.773438 -7.238281 11.816406 -7.175781 11.828125 -7.09375 C 11.835938 -7.007812 11.84375 -6.925781 11.84375 -6.84375 C 11.84375 -6.363281 11.835938 -5.878906 11.828125 -5.390625 C 11.816406 -4.910156 11.8125 -4.429688 11.8125 -3.953125 C 11.8125 -3.628906 11.796875 -3.300781 11.765625 -2.96875 C 11.742188 -2.632812 11.6875 -2.3125 11.59375 -2 C 11.507812 -1.695312 11.367188 -1.414062 11.171875 -1.15625 C 10.910156 -0.820312 10.578125 -0.566406 10.171875 -0.390625 C 9.773438 -0.222656 9.375 -0.0859375 8.96875 0.015625 C 8.207031 0.203125 7.429688 0.3125 6.640625 0.34375 C 5.847656 0.375 5.066406 0.300781 4.296875 0.125 C 3.972656 0.0507812 3.65625 -0.046875 3.34375 -0.171875 C 3.039062 -0.296875 2.753906 -0.453125 2.484375 -0.640625 C 2.222656 -0.828125 1.984375 -1.046875 1.765625 -1.296875 C 1.546875 -1.554688 1.378906 -1.84375 1.265625 -2.15625 C 1.191406 -2.34375 1.140625 -2.535156 1.109375 -2.734375 C 1.078125 -2.941406 1.0625 -3.148438 1.0625 -3.359375 Z M 1.0625 -3.359375 "/></g></g></g><g fill="#000000" fill-opacity="1"><g transform="translate(31.245417, 11.504273)"><g><path d="M 7.34375 -7.34375 C 7.5 -7.332031 7.65625 -7.328125 7.8125 -7.328125 C 7.976562 -7.328125 8.140625 -7.328125 8.296875 -7.328125 C 8.597656 -7.328125 8.894531 -7.316406 9.1875 -7.296875 C 9.488281 -7.285156 9.789062 -7.242188 10.09375 -7.171875 C 10.375 -7.085938 10.640625 -6.957031 10.890625 -6.78125 C 11.148438 -6.613281 11.347656 -6.398438 11.484375 -6.140625 C 11.585938 -5.941406 11.65625 -5.734375 11.6875 -5.515625 C 11.726562 -5.296875 11.738281 -5.078125 11.71875 -4.859375 C 11.6875 -4.671875 11.640625 -4.484375 11.578125 -4.296875 C 11.515625 -4.109375 11.421875 -3.9375 11.296875 -3.78125 C 11.179688 -3.644531 11.039062 -3.53125 10.875 -3.4375 C 10.707031 -3.34375 10.53125 -3.265625 10.34375 -3.203125 C 9.769531 -3.003906 9.171875 -2.890625 8.546875 -2.859375 C 7.929688 -2.828125 7.316406 -2.816406 6.703125 -2.828125 L 3.25 -2.859375 C 3.207031 -2.859375 3.160156 -2.851562 3.109375 -2.84375 C 3.066406 -2.832031 3.035156 -2.8125 3.015625 -2.78125 C 2.992188 -2.75 2.976562 -2.71875 2.96875 -2.6875 C 2.96875 -2.65625 2.96875 -2.625 2.96875 -2.59375 L 3 -0.234375 C 3 -0.191406 2.992188 -0.148438 2.984375 -0.109375 C 2.984375 -0.0664062 2.960938 -0.0351562 2.921875 -0.015625 C 2.898438 -0.00390625 2.878906 0 2.859375 0 C 2.835938 0.0078125 2.8125 0.015625 2.78125 0.015625 L 1.859375 0.015625 C 1.773438 0.015625 1.691406 0.015625 1.609375 0.015625 C 1.535156 0.015625 1.460938 0.015625 1.390625 0.015625 C 1.335938 0.015625 1.28125 0.015625 1.21875 0.015625 C 1.15625 0.015625 1.101562 -0.00390625 1.0625 -0.046875 C 1.039062 -0.0859375 1.035156 -0.148438 1.046875 -0.234375 C 1.054688 -0.316406 1.0625 -0.382812 1.0625 -0.4375 C 1.050781 -0.507812 1.046875 -0.582031 1.046875 -0.65625 C 1.046875 -0.738281 1.046875 -0.820312 1.046875 -0.90625 L 1.046875 -1.828125 C 1.035156 -2.703125 1.023438 -3.578125 1.015625 -4.453125 C 1.015625 -5.328125 1.007812 -6.195312 1 -7.0625 C 1 -7.101562 1.003906 -7.144531 1.015625 -7.1875 C 1.023438 -7.226562 1.039062 -7.265625 1.0625 -7.296875 C 1.09375 -7.328125 1.128906 -7.34375 1.171875 -7.34375 C 1.210938 -7.34375 1.242188 -7.34375 1.265625 -7.34375 C 2.273438 -7.34375 3.285156 -7.34375 4.296875 -7.34375 C 5.304688 -7.34375 6.320312 -7.34375 7.34375 -7.34375 Z M 7.4375 -4.203125 C 7.601562 -4.210938 7.765625 -4.21875 7.921875 -4.21875 C 8.085938 -4.226562 8.253906 -4.238281 8.421875 -4.25 C 8.535156 -4.257812 8.644531 -4.269531 8.75 -4.28125 C 8.863281 -4.300781 8.972656 -4.320312 9.078125 -4.34375 C 9.179688 -4.382812 9.28125 -4.429688 9.375 -4.484375 C 9.46875 -4.546875 9.546875 -4.617188 9.609375 -4.703125 C 9.671875 -4.785156 9.710938 -4.875 9.734375 -4.96875 C 9.753906 -5.070312 9.753906 -5.171875 9.734375 -5.265625 C 9.691406 -5.398438 9.601562 -5.515625 9.46875 -5.609375 C 9.34375 -5.703125 9.207031 -5.769531 9.0625 -5.8125 C 8.894531 -5.875 8.71875 -5.921875 8.53125 -5.953125 C 8.34375 -5.984375 8.160156 -6 7.984375 -6 C 7.796875 -6.007812 7.609375 -6.007812 7.421875 -6 C 6.710938 -5.988281 6 -5.972656 5.28125 -5.953125 C 4.570312 -5.941406 3.867188 -5.9375 3.171875 -5.9375 C 3.140625 -5.9375 3.101562 -5.929688 3.0625 -5.921875 C 3.03125 -5.921875 3.003906 -5.910156 2.984375 -5.890625 C 2.953125 -5.859375 2.9375 -5.820312 2.9375 -5.78125 C 2.945312 -5.738281 2.953125 -5.695312 2.953125 -5.65625 C 3.035156 -5.300781 3.035156 -4.941406 2.953125 -4.578125 C 2.941406 -4.515625 2.9375 -4.445312 2.9375 -4.375 C 2.945312 -4.3125 2.976562 -4.257812 3.03125 -4.21875 C 3.050781 -4.21875 3.070312 -4.210938 3.09375 -4.203125 C 3.113281 -4.203125 3.132812 -4.203125 3.15625 -4.203125 C 3.425781 -4.203125 3.695312 -4.195312 3.96875 -4.1875 C 4.238281 -4.1875 4.515625 -4.1875 4.796875 -4.1875 C 5.234375 -4.1875 5.671875 -4.1875 6.109375 -4.1875 C 6.546875 -4.1875 6.988281 -4.191406 7.4375 -4.203125 Z M 7.4375 -4.203125 "/></g></g></g><g fill="#000000" fill-opacity="1"><g transform="translate(46.644802, 11.504273)"><g><path d="M 7.34375 -7.34375 C 7.5 -7.332031 7.65625 -7.328125 7.8125 -7.328125 C 7.976562 -7.328125 8.140625 -7.328125 8.296875 -7.328125 C 8.597656 -7.328125 8.894531 -7.316406 9.1875 -7.296875 C 9.488281 -7.285156 9.789062 -7.242188 10.09375 -7.171875 C 10.375 -7.085938 10.640625 -6.957031 10.890625 -6.78125 C 11.148438 -6.613281 11.347656 -6.398438 11.484375 -6.140625 C 11.585938 -5.941406 11.65625 -5.734375 11.6875 -5.515625 C 11.726562 -5.296875 11.738281 -5.078125 11.71875 -4.859375 C 11.6875 -4.671875 11.640625 -4.484375 11.578125 -4.296875 C 11.515625 -4.109375 11.421875 -3.9375 11.296875 -3.78125 C 11.179688 -3.644531 11.039062 -3.53125 10.875 -3.4375 C 10.707031 -3.34375 10.53125 -3.265625 10.34375 -3.203125 C 9.769531 -3.003906 9.171875 -2.890625 8.546875 -2.859375 C 7.929688 -2.828125 7.316406 -2.816406 6.703125 -2.828125 L 3.25 -2.859375 C 3.207031 -2.859375 3.160156 -2.851562 3.109375 -2.84375 C 3.066406 -2.832031 3.035156 -2.8125 3.015625 -2.78125 C 2.992188 -2.75 2.976562 -2.71875 2.96875 -2.6875 C 2.96875 -2.65625 2.96875 -2.625 2.96875 -2.59375 L 3 -0.234375 C 3 -0.191406 2.992188 -0.148438 2.984375 -0.109375 C 2.984375 -0.0664062 2.960938 -0.0351562 2.921875 -0.015625 C 2.898438 -0.00390625 2.878906 0 2.859375 0 C 2.835938 0.0078125 2.8125 0.015625 2.78125 0.015625 L 1.859375 0.015625 C 1.773438 0.015625 1.691406 0.015625 1.609375 0.015625 C 1.535156 0.015625 1.460938 0.015625 1.390625 0.015625 C 1.335938 0.015625 1.28125 0.015625 1.21875 0.015625 C 1.15625 0.015625 1.101562 -0.00390625 1.0625 -0.046875 C 1.039062 -0.0859375 1.035156 -0.148438 1.046875 -0.234375 C 1.054688 -0.316406 1.0625 -0.382812 1.0625 -0.4375 C 1.050781 -0.507812 1.046875 -0.582031 1.046875 -0.65625 C 1.046875 -0.738281 1.046875 -0.820312 1.046875 -0.90625 L 1.046875 -1.828125 C 1.035156 -2.703125 1.023438 -3.578125 1.015625 -4.453125 C 1.015625 -5.328125 1.007812 -6.195312 1 -7.0625 C 1 -7.101562 1.003906 -7.144531 1.015625 -7.1875 C 1.023438 -7.226562 1.039062 -7.265625 1.0625 -7.296875 C 1.09375 -7.328125 1.128906 -7.34375 1.171875 -7.34375 C 1.210938 -7.34375 1.242188 -7.34375 1.265625 -7.34375 C 2.273438 -7.34375 3.285156 -7.34375 4.296875 -7.34375 C 5.304688 -7.34375 6.320312 -7.34375 7.34375 -7.34375 Z M 7.4375 -4.203125 C 7.601562 -4.210938 7.765625 -4.21875 7.921875 -4.21875 C 8.085938 -4.226562 8.253906 -4.238281 8.421875 -4.25 C 8.535156 -4.257812 8.644531 -4.269531 8.75 -4.28125 C 8.863281 -4.300781 8.972656 -4.320312 9.078125 -4.34375 C 9.179688 -4.382812 9.28125 -4.429688 9.375 -4.484375 C 9.46875 -4.546875 9.546875 -4.617188 9.609375 -4.703125 C 9.671875 -4.785156 9.710938 -4.875 9.734375 -4.96875 C 9.753906 -5.070312 9.753906 -5.171875 9.734375 -5.265625 C 9.691406 -5.398438 9.601562 -5.515625 9.46875 -5.609375 C 9.34375 -5.703125 9.207031 -5.769531 9.0625 -5.8125 C 8.894531 -5.875 8.71875 -5.921875 8.53125 -5.953125 C 8.34375 -5.984375 8.160156 -6 7.984375 -6 C 7.796875 -6.007812 7.609375 -6.007812 7.421875 -6 C 6.710938 -5.988281 6 -5.972656 5.28125 -5.953125 C 4.570312 -5.941406 3.867188 -5.9375 3.171875 -5.9375 C 3.140625 -5.9375 3.101562 -5.929688 3.0625 -5.921875 C 3.03125 -5.921875 3.003906 -5.910156 2.984375 -5.890625 C 2.953125 -5.859375 2.9375 -5.820312 2.9375 -5.78125 C 2.945312 -5.738281 2.953125 -5.695312 2.953125 -5.65625 C 3.035156 -5.300781 3.035156 -4.941406 2.953125 -4.578125 C 2.941406 -4.515625 2.9375 -4.445312 2.9375 -4.375 C 2.945312 -4.3125 2.976562 -4.257812 3.03125 -4.21875 C 3.050781 -4.21875 3.070312 -4.210938 3.09375 -4.203125 C 3.113281 -4.203125 3.132812 -4.203125 3.15625 -4.203125 C 3.425781 -4.203125 3.695312 -4.195312 3.96875 -4.1875 C 4.238281 -4.1875 4.515625 -4.1875 4.796875 -4.1875 C 5.234375 -4.1875 5.671875 -4.1875 6.109375 -4.1875 C 6.546875 -4.1875 6.988281 -4.191406 7.4375 -4.203125 Z M 7.4375 -4.203125 "/></g></g></g><g fill="#000000" fill-opacity="1"><g transform="translate(62.044187, 11.504273)"><g><path d="M 1.03125 0 C 1.101562 0.0625 1.1875 0.09375 1.28125 0.09375 C 1.382812 0.09375 1.484375 0.0703125 1.578125 0.03125 C 1.679688 -0.0078125 1.785156 -0.0234375 1.890625 -0.015625 C 2.171875 -0.015625 2.457031 -0.0078125 2.75 0 C 3.050781 0.0078125 3.34375 0.0078125 3.625 0 C 4.488281 0 5.347656 0.00390625 6.203125 0.015625 C 7.066406 0.0234375 7.929688 0.0195312 8.796875 0 C 9.148438 -0.0078125 9.5 -0.015625 9.84375 -0.015625 C 10.195312 -0.0234375 10.546875 -0.00390625 10.890625 0.046875 C 10.972656 0.0546875 11.054688 0.0507812 11.140625 0.03125 C 11.222656 0.0078125 11.265625 -0.0507812 11.265625 -0.15625 C 11.265625 -0.1875 11.257812 -0.21875 11.25 -0.25 C 11.238281 -0.289062 11.226562 -0.328125 11.21875 -0.359375 C 11.1875 -0.492188 11.179688 -0.617188 11.203125 -0.734375 C 11.222656 -0.859375 11.242188 -0.988281 11.265625 -1.125 C 11.285156 -1.195312 11.289062 -1.285156 11.28125 -1.390625 C 11.28125 -1.492188 11.234375 -1.554688 11.140625 -1.578125 C 11.054688 -1.597656 10.972656 -1.59375 10.890625 -1.5625 C 10.804688 -1.53125 10.722656 -1.515625 10.640625 -1.515625 C 10.503906 -1.515625 10.414062 -1.519531 10.375 -1.53125 C 10.332031 -1.539062 10.238281 -1.546875 10.09375 -1.546875 C 9.957031 -1.546875 9.816406 -1.546875 9.671875 -1.546875 C 9.523438 -1.546875 9.382812 -1.546875 9.25 -1.546875 C 8.8125 -1.535156 8.375 -1.53125 7.9375 -1.53125 C 7.5 -1.53125 7.066406 -1.53125 6.640625 -1.53125 C 6.210938 -1.53125 5.789062 -1.523438 5.375 -1.515625 C 4.957031 -1.515625 4.539062 -1.519531 4.125 -1.53125 C 4.019531 -1.53125 3.910156 -1.535156 3.796875 -1.546875 C 3.691406 -1.554688 3.585938 -1.550781 3.484375 -1.53125 C 3.410156 -1.519531 3.328125 -1.5 3.234375 -1.46875 C 3.140625 -1.4375 3.054688 -1.453125 2.984375 -1.515625 C 2.953125 -1.546875 2.929688 -1.582031 2.921875 -1.625 C 2.921875 -1.675781 2.921875 -1.726562 2.921875 -1.78125 C 2.941406 -1.945312 2.957031 -2.113281 2.96875 -2.28125 C 2.976562 -2.445312 2.984375 -2.613281 2.984375 -2.78125 C 2.984375 -2.957031 2.984375 -3.140625 2.984375 -3.328125 C 2.984375 -3.515625 2.984375 -3.695312 2.984375 -3.875 C 2.972656 -4.21875 2.960938 -4.566406 2.953125 -4.921875 C 2.953125 -5.285156 2.957031 -5.632812 2.96875 -5.96875 C 2.96875 -6.15625 2.96875 -6.332031 2.96875 -6.5 C 2.976562 -6.675781 3 -6.851562 3.03125 -7.03125 C 3.039062 -7.0625 3.046875 -7.09375 3.046875 -7.125 C 3.046875 -7.164062 3.046875 -7.207031 3.046875 -7.25 C 3.023438 -7.3125 2.984375 -7.351562 2.921875 -7.375 C 2.859375 -7.394531 2.789062 -7.398438 2.71875 -7.390625 C 2.65625 -7.378906 2.59375 -7.367188 2.53125 -7.359375 C 2.46875 -7.347656 2.40625 -7.34375 2.34375 -7.34375 C 2.195312 -7.332031 2.046875 -7.328125 1.890625 -7.328125 C 1.742188 -7.335938 1.59375 -7.351562 1.4375 -7.375 C 1.363281 -7.394531 1.273438 -7.40625 1.171875 -7.40625 C 1.078125 -7.40625 1.007812 -7.359375 0.96875 -7.265625 C 0.9375 -7.148438 0.9375 -7.023438 0.96875 -6.890625 C 1.007812 -6.765625 1.03125 -6.648438 1.03125 -6.546875 C 1.050781 -6.398438 1.0625 -6.253906 1.0625 -6.109375 C 1.0625 -5.972656 1.0625 -5.832031 1.0625 -5.6875 C 1.0625 -5.414062 1.054688 -5.144531 1.046875 -4.875 C 1.035156 -4.601562 1.03125 -4.328125 1.03125 -4.046875 C 1.03125 -3.546875 1.03125 -3.046875 1.03125 -2.546875 C 1.03125 -2.054688 1.03125 -1.5625 1.03125 -1.0625 C 1.03125 -0.945312 1.03125 -0.828125 1.03125 -0.703125 C 1.03125 -0.585938 1.015625 -0.46875 0.984375 -0.34375 C 0.972656 -0.269531 0.960938 -0.207031 0.953125 -0.15625 C 0.953125 -0.101562 0.976562 -0.0507812 1.03125 0 Z M 1.03125 0 "/></g></g></g><g fill="#000000" fill-opacity="1"><g transform="translate(76.919529, 11.504273)"><g><path d="M 1.03125 -7.359375 C 0.976562 -7.304688 0.957031 -7.207031 0.96875 -7.0625 C 0.976562 -6.914062 1 -6.765625 1.03125 -6.609375 C 1.0625 -6.460938 1.078125 -6.347656 1.078125 -6.265625 C 1.085938 -6.054688 1.082031 -5.84375 1.0625 -5.625 C 1.050781 -5.414062 1.039062 -5.203125 1.03125 -4.984375 C 1.03125 -4.648438 1.03125 -4.3125 1.03125 -3.96875 C 1.039062 -3.632812 1.050781 -3.296875 1.0625 -2.953125 C 1.070312 -2.523438 1.078125 -2.09375 1.078125 -1.65625 C 1.085938 -1.21875 1.0625 -0.78125 1 -0.34375 C 1 -0.289062 0.992188 -0.238281 0.984375 -0.1875 C 0.984375 -0.144531 0.992188 -0.0976562 1.015625 -0.046875 C 1.046875 0.015625 1.09375 0.0507812 1.15625 0.0625 C 1.226562 0.0703125 1.300781 0.0664062 1.375 0.046875 C 1.445312 0.0234375 1.515625 0.015625 1.578125 0.015625 C 1.691406 -0.00390625 1.8125 -0.0078125 1.9375 0 C 2.0625 0.0078125 2.175781 0.0234375 2.28125 0.046875 C 2.34375 0.046875 2.421875 0.0507812 2.515625 0.0625 C 2.617188 0.0820312 2.71875 0.0859375 2.8125 0.078125 C 2.90625 0.0664062 2.972656 0.0234375 3.015625 -0.046875 C 3.054688 -0.109375 3.066406 -0.179688 3.046875 -0.265625 C 3.023438 -0.347656 3.015625 -0.425781 3.015625 -0.5 C 2.992188 -0.625 2.984375 -0.757812 2.984375 -0.90625 C 2.992188 -1.050781 3 -1.191406 3 -1.328125 L 2.96875 -2.984375 C 2.957031 -3.535156 2.953125 -4.085938 2.953125 -4.640625 C 2.953125 -5.191406 2.960938 -5.742188 2.984375 -6.296875 C 2.992188 -6.378906 3.007812 -6.484375 3.03125 -6.609375 C 3.050781 -6.734375 3.066406 -6.859375 3.078125 -6.984375 C 3.085938 -7.117188 3.070312 -7.21875 3.03125 -7.28125 C 2.988281 -7.363281 2.929688 -7.40625 2.859375 -7.40625 C 2.796875 -7.40625 2.726562 -7.394531 2.65625 -7.375 C 2.582031 -7.351562 2.507812 -7.335938 2.4375 -7.328125 C 2.375 -7.316406 2.304688 -7.316406 2.234375 -7.328125 C 2.160156 -7.335938 2.09375 -7.34375 2.03125 -7.34375 C 1.9375 -7.34375 1.828125 -7.359375 1.703125 -7.390625 C 1.585938 -7.421875 1.472656 -7.441406 1.359375 -7.453125 C 1.242188 -7.472656 1.144531 -7.457031 1.0625 -7.40625 C 1.0625 -7.394531 1.054688 -7.382812 1.046875 -7.375 C 1.035156 -7.375 1.03125 -7.367188 1.03125 -7.359375 Z M 1.03125 -7.359375 "/></g></g></g><g fill="#000000" fill-opacity="1"><g transform="translate(84.112437, 11.504273)"><g><path d="M 1.046875 0 L 1.0625 0.015625 C 1.125 0.0664062 1.191406 0.0820312 1.265625 0.0625 C 1.347656 0.0507812 1.421875 0.0351562 1.484375 0.015625 C 1.566406 -0.00390625 1.644531 -0.015625 1.71875 -0.015625 C 1.789062 -0.015625 1.863281 -0.015625 1.9375 -0.015625 C 3.394531 0.015625 4.851562 0.0195312 6.3125 0 C 7.769531 -0.0078125 9.226562 -0.015625 10.6875 -0.015625 C 10.820312 -0.015625 10.910156 -0.015625 10.953125 -0.015625 C 10.992188 -0.015625 11.082031 -0.015625 11.21875 -0.015625 C 11.289062 -0.015625 11.363281 0 11.4375 0.03125 C 11.507812 0.0625 11.578125 0.0703125 11.640625 0.0625 C 11.710938 0.0625 11.769531 0.015625 11.8125 -0.078125 C 11.863281 -0.148438 11.882812 -0.238281 11.875 -0.34375 C 11.863281 -0.457031 11.847656 -0.566406 11.828125 -0.671875 C 11.804688 -0.785156 11.796875 -0.882812 11.796875 -0.96875 C 11.796875 -1.09375 11.796875 -1.195312 11.796875 -1.28125 C 11.804688 -1.375 11.785156 -1.441406 11.734375 -1.484375 C 11.679688 -1.523438 11.566406 -1.546875 11.390625 -1.546875 C 10.035156 -1.546875 8.679688 -1.539062 7.328125 -1.53125 C 5.984375 -1.519531 4.628906 -1.515625 3.265625 -1.515625 C 3.097656 -1.515625 3.003906 -1.570312 2.984375 -1.6875 C 2.960938 -1.800781 2.941406 -1.925781 2.921875 -2.0625 C 2.910156 -2.175781 2.894531 -2.304688 2.875 -2.453125 C 2.863281 -2.609375 2.890625 -2.742188 2.953125 -2.859375 C 2.992188 -2.921875 3.054688 -2.953125 3.140625 -2.953125 C 3.234375 -2.960938 3.316406 -2.957031 3.390625 -2.9375 C 3.515625 -2.90625 3.628906 -2.882812 3.734375 -2.875 C 3.847656 -2.875 3.96875 -2.875 4.09375 -2.875 C 5.320312 -2.875 6.554688 -2.875 7.796875 -2.875 C 9.046875 -2.875 10.285156 -2.878906 11.515625 -2.890625 C 11.546875 -2.890625 11.570312 -2.890625 11.59375 -2.890625 C 11.625 -2.890625 11.648438 -2.898438 11.671875 -2.921875 C 11.703125 -2.953125 11.71875 -3 11.71875 -3.0625 L 11.8125 -3.9375 C 11.832031 -4.101562 11.785156 -4.21875 11.671875 -4.28125 C 11.566406 -4.34375 11.425781 -4.375 11.25 -4.375 C 11.070312 -4.382812 10.894531 -4.378906 10.71875 -4.359375 C 10.550781 -4.347656 10.421875 -4.34375 10.328125 -4.34375 C 9.984375 -4.332031 9.640625 -4.328125 9.296875 -4.328125 C 8.953125 -4.328125 8.601562 -4.320312 8.25 -4.3125 C 7.5625 -4.3125 6.867188 -4.3125 6.171875 -4.3125 C 5.484375 -4.3125 4.789062 -4.3125 4.09375 -4.3125 C 3.96875 -4.3125 3.804688 -4.296875 3.609375 -4.265625 C 3.421875 -4.234375 3.265625 -4.234375 3.140625 -4.265625 C 3.066406 -4.273438 3.007812 -4.320312 2.96875 -4.40625 C 2.9375 -4.488281 2.921875 -4.566406 2.921875 -4.640625 C 2.921875 -4.765625 2.914062 -4.894531 2.90625 -5.03125 C 2.90625 -5.175781 2.910156 -5.304688 2.921875 -5.421875 C 2.941406 -5.535156 2.984375 -5.628906 3.046875 -5.703125 C 3.117188 -5.785156 3.234375 -5.828125 3.390625 -5.828125 C 4.140625 -5.816406 4.882812 -5.8125 5.625 -5.8125 C 6.363281 -5.8125 7.101562 -5.8125 7.84375 -5.8125 C 8.207031 -5.800781 8.578125 -5.796875 8.953125 -5.796875 C 9.335938 -5.796875 9.71875 -5.789062 10.09375 -5.78125 C 10.25 -5.78125 10.398438 -5.78125 10.546875 -5.78125 C 10.703125 -5.789062 10.859375 -5.789062 11.015625 -5.78125 C 11.128906 -5.769531 11.25 -5.757812 11.375 -5.75 C 11.507812 -5.738281 11.625 -5.769531 11.71875 -5.84375 C 11.78125 -5.882812 11.8125 -5.9375 11.8125 -6 C 11.820312 -6.070312 11.828125 -6.140625 11.828125 -6.203125 L 11.796875 -6.953125 C 11.796875 -7.003906 11.789062 -7.050781 11.78125 -7.09375 C 11.78125 -7.132812 11.765625 -7.175781 11.734375 -7.21875 C 11.691406 -7.269531 11.632812 -7.300781 11.5625 -7.3125 C 11.5 -7.320312 11.429688 -7.328125 11.359375 -7.328125 L 1.328125 -7.359375 C 1.191406 -7.359375 1.097656 -7.300781 1.046875 -7.1875 C 1.003906 -7.082031 0.984375 -6.945312 0.984375 -6.78125 C 0.984375 -6.613281 0.992188 -6.453125 1.015625 -6.296875 C 1.035156 -6.140625 1.046875 -6.007812 1.046875 -5.90625 C 1.054688 -5.46875 1.0625 -5.023438 1.0625 -4.578125 C 1.0625 -4.128906 1.0625 -3.679688 1.0625 -3.234375 C 1.0625 -2.921875 1.0625 -2.609375 1.0625 -2.296875 C 1.0625 -1.984375 1.054688 -1.675781 1.046875 -1.375 C 1.046875 -1.164062 1.03125 -0.960938 1 -0.765625 C 0.96875 -0.566406 0.96875 -0.367188 1 -0.171875 C 1 -0.140625 1.003906 -0.109375 1.015625 -0.078125 C 1.023438 -0.0546875 1.035156 -0.03125 1.046875 0 Z M 1.046875 0 "/></g></g></g><g fill="#000000" fill-opacity="1"><g transform="translate(100.05682, 11.504273)"><g><path d="M 0.6875 -0.53125 C 0.6875 -0.53125 0.679688 -0.535156 0.671875 -0.546875 C 0.660156 -0.554688 0.65625 -0.570312 0.65625 -0.59375 C 0.65625 -0.613281 0.648438 -0.632812 0.640625 -0.65625 C 0.597656 -1.207031 0.585938 -1.769531 0.609375 -2.34375 C 0.992188 -2.03125 1.414062 -1.773438 1.875 -1.578125 C 2.34375 -1.390625 2.820312 -1.25 3.3125 -1.15625 C 3.800781 -1.0625 4.289062 -1 4.78125 -0.96875 C 5.28125 -0.945312 5.773438 -0.941406 6.265625 -0.953125 C 6.640625 -0.960938 7.015625 -0.976562 7.390625 -1 C 7.765625 -1.03125 8.132812 -1.085938 8.5 -1.171875 C 8.6875 -1.210938 8.867188 -1.28125 9.046875 -1.375 C 9.234375 -1.476562 9.347656 -1.625 9.390625 -1.8125 C 9.429688 -1.96875 9.40625 -2.113281 9.3125 -2.25 C 9.226562 -2.394531 9.117188 -2.507812 8.984375 -2.59375 C 8.847656 -2.664062 8.703125 -2.710938 8.546875 -2.734375 C 8.398438 -2.765625 8.25 -2.789062 8.09375 -2.8125 C 7.332031 -2.863281 6.570312 -2.890625 5.8125 -2.890625 C 5.050781 -2.890625 4.296875 -2.914062 3.546875 -2.96875 C 3.265625 -2.988281 2.984375 -3.015625 2.703125 -3.046875 C 2.421875 -3.085938 2.144531 -3.160156 1.875 -3.265625 C 1.613281 -3.359375 1.363281 -3.488281 1.125 -3.65625 C 0.894531 -3.820312 0.710938 -4.03125 0.578125 -4.28125 C 0.378906 -4.613281 0.300781 -4.984375 0.34375 -5.390625 C 0.382812 -5.796875 0.53125 -6.140625 0.78125 -6.421875 C 0.988281 -6.648438 1.222656 -6.828125 1.484375 -6.953125 C 1.753906 -7.085938 2.035156 -7.191406 2.328125 -7.265625 C 2.984375 -7.441406 3.65625 -7.550781 4.34375 -7.59375 C 5.03125 -7.644531 5.710938 -7.660156 6.390625 -7.640625 C 7.109375 -7.628906 7.832031 -7.582031 8.5625 -7.5 C 9.289062 -7.414062 9.984375 -7.222656 10.640625 -6.921875 C 10.679688 -6.898438 10.722656 -6.875 10.765625 -6.84375 C 10.804688 -6.820312 10.835938 -6.789062 10.859375 -6.75 C 10.878906 -6.71875 10.890625 -6.679688 10.890625 -6.640625 C 10.890625 -6.597656 10.890625 -6.554688 10.890625 -6.515625 C 10.890625 -6.265625 10.882812 -6.007812 10.875 -5.75 C 10.875 -5.5 10.875 -5.242188 10.875 -4.984375 C 10.664062 -5.191406 10.429688 -5.363281 10.171875 -5.5 C 9.910156 -5.644531 9.640625 -5.769531 9.359375 -5.875 C 9.222656 -5.914062 9.082031 -5.957031 8.9375 -6 C 8.789062 -6.050781 8.640625 -6.085938 8.484375 -6.109375 C 8.390625 -6.140625 8.296875 -6.164062 8.203125 -6.1875 C 8.117188 -6.21875 8.03125 -6.242188 7.9375 -6.265625 C 7.84375 -6.273438 7.75 -6.273438 7.65625 -6.265625 C 7.570312 -6.265625 7.484375 -6.265625 7.390625 -6.265625 C 6.941406 -6.304688 6.488281 -6.328125 6.03125 -6.328125 C 5.582031 -6.335938 5.128906 -6.320312 4.671875 -6.28125 C 4.222656 -6.25 3.773438 -6.179688 3.328125 -6.078125 C 3.210938 -6.046875 3.09375 -6.007812 2.96875 -5.96875 C 2.84375 -5.9375 2.734375 -5.882812 2.640625 -5.8125 C 2.546875 -5.738281 2.46875 -5.644531 2.40625 -5.53125 C 2.34375 -5.414062 2.316406 -5.296875 2.328125 -5.171875 C 2.359375 -4.960938 2.472656 -4.804688 2.671875 -4.703125 C 2.867188 -4.597656 3.066406 -4.523438 3.265625 -4.484375 C 3.898438 -4.367188 4.539062 -4.300781 5.1875 -4.28125 C 5.84375 -4.269531 6.492188 -4.257812 7.140625 -4.25 C 7.796875 -4.25 8.441406 -4.195312 9.078125 -4.09375 C 9.328125 -4.0625 9.566406 -4.007812 9.796875 -3.9375 C 10.035156 -3.875 10.265625 -3.78125 10.484375 -3.65625 C 10.691406 -3.519531 10.875 -3.351562 11.03125 -3.15625 C 11.195312 -2.957031 11.300781 -2.738281 11.34375 -2.5 C 11.375 -2.34375 11.378906 -2.1875 11.359375 -2.03125 C 11.335938 -1.882812 11.3125 -1.738281 11.28125 -1.59375 C 11.25 -1.457031 11.207031 -1.320312 11.15625 -1.1875 C 11.113281 -1.0625 11.050781 -0.945312 10.96875 -0.84375 C 10.84375 -0.675781 10.6875 -0.539062 10.5 -0.4375 C 10.320312 -0.332031 10.132812 -0.242188 9.9375 -0.171875 C 9.164062 0.109375 8.367188 0.269531 7.546875 0.3125 C 6.722656 0.351562 5.898438 0.359375 5.078125 0.328125 C 4.359375 0.304688 3.628906 0.25 2.890625 0.15625 C 2.160156 0.0625 1.460938 -0.140625 0.796875 -0.453125 C 0.742188 -0.484375 0.707031 -0.507812 0.6875 -0.53125 Z M 0.6875 -0.53125 "/></g></g></g><g fill="#000000" fill-opacity="1"><g transform="translate(114.963608, 11.504273)"><g/></g></g><g fill="#000000" fill-opacity="1"><g transform="translate(123.351331, 11.504273)"><g><path d="M 7.34375 -7.34375 C 7.5 -7.332031 7.65625 -7.328125 7.8125 -7.328125 C 7.976562 -7.328125 8.140625 -7.328125 8.296875 -7.328125 C 8.597656 -7.328125 8.894531 -7.316406 9.1875 -7.296875 C 9.488281 -7.285156 9.789062 -7.242188 10.09375 -7.171875 C 10.375 -7.085938 10.640625 -6.957031 10.890625 -6.78125 C 11.148438 -6.613281 11.347656 -6.398438 11.484375 -6.140625 C 11.585938 -5.941406 11.65625 -5.734375 11.6875 -5.515625 C 11.726562 -5.296875 11.738281 -5.078125 11.71875 -4.859375 C 11.6875 -4.671875 11.640625 -4.484375 11.578125 -4.296875 C 11.515625 -4.109375 11.421875 -3.9375 11.296875 -3.78125 C 11.179688 -3.644531 11.039062 -3.53125 10.875 -3.4375 C 10.707031 -3.34375 10.53125 -3.265625 10.34375 -3.203125 C 9.769531 -3.003906 9.171875 -2.890625 8.546875 -2.859375 C 7.929688 -2.828125 7.316406 -2.816406 6.703125 -2.828125 L 3.25 -2.859375 C 3.207031 -2.859375 3.160156 -2.851562 3.109375 -2.84375 C 3.066406 -2.832031 3.035156 -2.8125 3.015625 -2.78125 C 2.992188 -2.75 2.976562 -2.71875 2.96875 -2.6875 C 2.96875 -2.65625 2.96875 -2.625 2.96875 -2.59375 L 3 -0.234375 C 3 -0.191406 2.992188 -0.148438 2.984375 -0.109375 C 2.984375 -0.0664062 2.960938 -0.0351562 2.921875 -0.015625 C 2.898438 -0.00390625 2.878906 0 2.859375 0 C 2.835938 0.0078125 2.8125 0.015625 2.78125 0.015625 L 1.859375 0.015625 C 1.773438 0.015625 1.691406 0.015625 1.609375 0.015625 C 1.535156 0.015625 1.460938 0.015625 1.390625 0.015625 C 1.335938 0.015625 1.28125 0.015625 1.21875 0.015625 C 1.15625 0.015625 1.101562 -0.00390625 1.0625 -0.046875 C 1.039062 -0.0859375 1.035156 -0.148438 1.046875 -0.234375 C 1.054688 -0.316406 1.0625 -0.382812 1.0625 -0.4375 C 1.050781 -0.507812 1.046875 -0.582031 1.046875 -0.65625 C 1.046875 -0.738281 1.046875 -0.820312 1.046875 -0.90625 L 1.046875 -1.828125 C 1.035156 -2.703125 1.023438 -3.578125 1.015625 -4.453125 C 1.015625 -5.328125 1.007812 -6.195312 1 -7.0625 C 1 -7.101562 1.003906 -7.144531 1.015625 -7.1875 C 1.023438 -7.226562 1.039062 -7.265625 1.0625 -7.296875 C 1.09375 -7.328125 1.128906 -7.34375 1.171875 -7.34375 C 1.210938 -7.34375 1.242188 -7.34375 1.265625 -7.34375 C 2.273438 -7.34375 3.285156 -7.34375 4.296875 -7.34375 C 5.304688 -7.34375 6.320312 -7.34375 7.34375 -7.34375 Z M 7.4375 -4.203125 C 7.601562 -4.210938 7.765625 -4.21875 7.921875 -4.21875 C 8.085938 -4.226562 8.253906 -4.238281 8.421875 -4.25 C 8.535156 -4.257812 8.644531 -4.269531 8.75 -4.28125 C 8.863281 -4.300781 8.972656 -4.320312 9.078125 -4.34375 C 9.179688 -4.382812 9.28125 -4.429688 9.375 -4.484375 C 9.46875 -4.546875 9.546875 -4.617188 9.609375 -4.703125 C 9.671875 -4.785156 9.710938 -4.875 9.734375 -4.96875 C 9.753906 -5.070312 9.753906 -5.171875 9.734375 -5.265625 C 9.691406 -5.398438 9.601562 -5.515625 9.46875 -5.609375 C 9.34375 -5.703125 9.207031 -5.769531 9.0625 -5.8125 C 8.894531 -5.875 8.71875 -5.921875 8.53125 -5.953125 C 8.34375 -5.984375 8.160156 -6 7.984375 -6 C 7.796875 -6.007812 7.609375 -6.007812 7.421875 -6 C 6.710938 -5.988281 6 -5.972656 5.28125 -5.953125 C 4.570312 -5.941406 3.867188 -5.9375 3.171875 -5.9375 C 3.140625 -5.9375 3.101562 -5.929688 3.0625 -5.921875 C 3.03125 -5.921875 3.003906 -5.910156 2.984375 -5.890625 C 2.953125 -5.859375 2.9375 -5.820312 2.9375 -5.78125 C 2.945312 -5.738281 2.953125 -5.695312 2.953125 -5.65625 C 3.035156 -5.300781 3.035156 -4.941406 2.953125 -4.578125 C 2.941406 -4.515625 2.9375 -4.445312 2.9375 -4.375 C 2.945312 -4.3125 2.976562 -4.257812 3.03125 -4.21875 C 3.050781 -4.21875 3.070312 -4.210938 3.09375 -4.203125 C 3.113281 -4.203125 3.132812 -4.203125 3.15625 -4.203125 C 3.425781 -4.203125 3.695312 -4.195312 3.96875 -4.1875 C 4.238281 -4.1875 4.515625 -4.1875 4.796875 -4.1875 C 5.234375 -4.1875 5.671875 -4.1875 6.109375 -4.1875 C 6.546875 -4.1875 6.988281 -4.191406 7.4375 -4.203125 Z M 7.4375 -4.203125 "/></g></g></g><g fill="#000000" fill-opacity="1"><g transform="translate(138.750716, 11.504273)"><g><path d="M 11.734375 -7.328125 C 11.742188 -7.265625 11.722656 -7.179688 11.671875 -7.078125 C 11.628906 -6.984375 11.582031 -6.890625 11.53125 -6.796875 C 11.476562 -6.703125 11.441406 -6.632812 11.421875 -6.59375 C 11.304688 -6.382812 11.179688 -6.175781 11.046875 -5.96875 C 10.910156 -5.769531 10.78125 -5.566406 10.65625 -5.359375 L 9.40625 -3.265625 C 9.207031 -2.929688 9.007812 -2.597656 8.8125 -2.265625 C 8.625 -1.941406 8.429688 -1.617188 8.234375 -1.296875 C 8.148438 -1.148438 8.054688 -0.972656 7.953125 -0.765625 C 7.859375 -0.566406 7.742188 -0.390625 7.609375 -0.234375 C 7.472656 -0.078125 7.3125 0.00390625 7.125 0.015625 L 5.296875 0.046875 C 5.109375 0.046875 4.972656 0 4.890625 -0.09375 C 4.816406 -0.1875 4.742188 -0.3125 4.671875 -0.46875 C 4.609375 -0.59375 4.53125 -0.707031 4.4375 -0.8125 C 4.351562 -0.914062 4.28125 -1.019531 4.21875 -1.125 C 4.132812 -1.269531 4.046875 -1.410156 3.953125 -1.546875 C 3.867188 -1.691406 3.785156 -1.832031 3.703125 -1.96875 C 3.535156 -2.238281 3.367188 -2.515625 3.203125 -2.796875 C 3.046875 -3.078125 2.882812 -3.359375 2.71875 -3.640625 L 1.578125 -5.5625 C 1.492188 -5.71875 1.398438 -5.878906 1.296875 -6.046875 C 1.203125 -6.210938 1.101562 -6.378906 1 -6.546875 C 0.976562 -6.578125 0.941406 -6.628906 0.890625 -6.703125 C 0.835938 -6.785156 0.785156 -6.867188 0.734375 -6.953125 C 0.679688 -7.046875 0.648438 -7.125 0.640625 -7.1875 C 0.628906 -7.257812 0.65625 -7.304688 0.71875 -7.328125 C 0.894531 -7.378906 1.09375 -7.394531 1.3125 -7.375 C 1.539062 -7.363281 1.742188 -7.359375 1.921875 -7.359375 C 2.015625 -7.359375 2.101562 -7.351562 2.1875 -7.34375 C 2.269531 -7.34375 2.347656 -7.320312 2.421875 -7.28125 C 2.492188 -7.226562 2.554688 -7.164062 2.609375 -7.09375 C 2.671875 -7.019531 2.726562 -6.945312 2.78125 -6.875 C 3.070312 -6.363281 3.363281 -5.851562 3.65625 -5.34375 C 3.945312 -4.84375 4.242188 -4.34375 4.546875 -3.84375 L 5.4375 -2.328125 C 5.5625 -2.140625 5.664062 -1.945312 5.75 -1.75 C 5.84375 -1.5625 5.960938 -1.382812 6.109375 -1.21875 C 6.140625 -1.175781 6.1875 -1.1875 6.25 -1.25 C 6.320312 -1.320312 6.398438 -1.421875 6.484375 -1.546875 C 6.566406 -1.671875 6.648438 -1.804688 6.734375 -1.953125 C 6.816406 -2.097656 6.890625 -2.222656 6.953125 -2.328125 C 7.015625 -2.441406 7.054688 -2.519531 7.078125 -2.5625 C 7.210938 -2.800781 7.347656 -3.039062 7.484375 -3.28125 C 7.617188 -3.519531 7.753906 -3.757812 7.890625 -4 C 8.191406 -4.488281 8.488281 -4.984375 8.78125 -5.484375 C 9.082031 -5.984375 9.382812 -6.488281 9.6875 -7 C 9.738281 -7.070312 9.789062 -7.144531 9.84375 -7.21875 C 9.90625 -7.300781 9.984375 -7.351562 10.078125 -7.375 C 10.148438 -7.394531 10.222656 -7.394531 10.296875 -7.375 C 10.367188 -7.363281 10.4375 -7.351562 10.5 -7.34375 C 10.832031 -7.257812 11.164062 -7.273438 11.5 -7.390625 C 11.632812 -7.421875 11.710938 -7.398438 11.734375 -7.328125 Z M 11.734375 -7.328125 "/></g></g></g><g fill="#000000" fill-opacity="1"><g transform="translate(154.233938, 11.504273)"><g><path d="M 0.59375 -5.875 C 0.582031 -5.894531 0.570312 -5.910156 0.5625 -5.921875 C 0.5625 -5.929688 0.550781 -5.945312 0.53125 -5.96875 C 0.519531 -6 0.507812 -6.035156 0.5 -6.078125 C 0.5 -6.117188 0.5 -6.160156 0.5 -6.203125 C 0.519531 -6.359375 0.53125 -6.515625 0.53125 -6.671875 C 0.53125 -6.828125 0.535156 -6.984375 0.546875 -7.140625 C 0.546875 -7.210938 0.5625 -7.265625 0.59375 -7.296875 C 0.613281 -7.328125 0.640625 -7.34375 0.671875 -7.34375 C 0.710938 -7.34375 0.75 -7.34375 0.78125 -7.34375 C 2.5 -7.34375 4.210938 -7.34375 5.921875 -7.34375 C 7.640625 -7.34375 9.359375 -7.335938 11.078125 -7.328125 C 11.097656 -7.328125 11.117188 -7.320312 11.140625 -7.3125 C 11.171875 -7.3125 11.195312 -7.300781 11.21875 -7.28125 C 11.238281 -7.257812 11.25 -7.21875 11.25 -7.15625 L 11.25 -6.078125 C 11.25 -6.023438 11.242188 -5.976562 11.234375 -5.9375 C 11.234375 -5.894531 11.21875 -5.863281 11.1875 -5.84375 C 11.15625 -5.8125 11.125 -5.789062 11.09375 -5.78125 C 11.0625 -5.78125 11.023438 -5.78125 10.984375 -5.78125 C 10.359375 -5.800781 9.734375 -5.8125 9.109375 -5.8125 C 8.484375 -5.820312 7.851562 -5.832031 7.21875 -5.84375 C 7.132812 -5.84375 7.046875 -5.832031 6.953125 -5.8125 C 6.859375 -5.800781 6.785156 -5.757812 6.734375 -5.6875 C 6.691406 -5.632812 6.664062 -5.578125 6.65625 -5.515625 C 6.65625 -5.453125 6.65625 -5.390625 6.65625 -5.328125 C 6.664062 -4.484375 6.675781 -3.632812 6.6875 -2.78125 C 6.695312 -1.9375 6.703125 -1.085938 6.703125 -0.234375 C 6.703125 -0.203125 6.703125 -0.171875 6.703125 -0.140625 C 6.703125 -0.117188 6.691406 -0.0976562 6.671875 -0.078125 C 6.640625 -0.046875 6.59375 -0.03125 6.53125 -0.03125 C 6.320312 0 6.113281 0.015625 5.90625 0.015625 C 5.695312 0.015625 5.488281 0.015625 5.28125 0.015625 C 5.175781 0.015625 5.070312 0 4.96875 -0.03125 C 4.875 -0.0625 4.796875 -0.117188 4.734375 -0.203125 C 4.710938 -0.242188 4.703125 -0.289062 4.703125 -0.34375 C 4.703125 -0.40625 4.703125 -0.460938 4.703125 -0.515625 C 4.710938 -1.328125 4.722656 -2.132812 4.734375 -2.9375 C 4.753906 -3.738281 4.773438 -4.539062 4.796875 -5.34375 C 4.796875 -5.425781 4.785156 -5.515625 4.765625 -5.609375 C 4.742188 -5.703125 4.695312 -5.769531 4.625 -5.8125 C 4.59375 -5.820312 4.5625 -5.828125 4.53125 -5.828125 C 4.5 -5.828125 4.460938 -5.828125 4.421875 -5.828125 C 3.859375 -5.816406 3.289062 -5.804688 2.71875 -5.796875 C 2.15625 -5.796875 1.585938 -5.789062 1.015625 -5.78125 C 0.941406 -5.78125 0.867188 -5.785156 0.796875 -5.796875 C 0.722656 -5.804688 0.65625 -5.832031 0.59375 -5.875 Z M 0.59375 -5.875 "/></g></g></g><g fill="#000000" fill-opacity="1"><g transform="translate(169.130253, 11.504273)"><g/></g></g><g fill="#000000" fill-opacity="1"><g transform="translate(177.517976, 11.504273)"><g><path d="M 0.546875 -0.6875 C 0.546875 -0.445312 0.648438 -0.269531 0.859375 -0.15625 C 0.992188 -0.0703125 1.148438 -0.0195312 1.328125 0 C 1.515625 0.0078125 1.6875 -0.015625 1.84375 -0.078125 C 2.007812 -0.140625 2.128906 -0.257812 2.203125 -0.4375 C 2.273438 -0.59375 2.273438 -0.75 2.203125 -0.90625 C 2.128906 -1.070312 2.015625 -1.191406 1.859375 -1.265625 C 1.710938 -1.335938 1.535156 -1.363281 1.328125 -1.34375 C 1.117188 -1.332031 0.9375 -1.269531 0.78125 -1.15625 C 0.632812 -1.050781 0.554688 -0.894531 0.546875 -0.6875 Z M 0.546875 -0.6875 "/></g></g></g><g fill="#000000" fill-opacity="1"><g transform="translate(183.463668, 11.504273)"><g/></g></g><g fill="#000000" fill-opacity="1"><g transform="translate(191.851391, 11.504273)"><g><path d="M 1.03125 0 C 1.101562 0.0625 1.1875 0.09375 1.28125 0.09375 C 1.382812 0.09375 1.484375 0.0703125 1.578125 0.03125 C 1.679688 -0.0078125 1.785156 -0.0234375 1.890625 -0.015625 C 2.171875 -0.015625 2.457031 -0.0078125 2.75 0 C 3.050781 0.0078125 3.34375 0.0078125 3.625 0 C 4.488281 0 5.347656 0.00390625 6.203125 0.015625 C 7.066406 0.0234375 7.929688 0.0195312 8.796875 0 C 9.148438 -0.0078125 9.5 -0.015625 9.84375 -0.015625 C 10.195312 -0.0234375 10.546875 -0.00390625 10.890625 0.046875 C 10.972656 0.0546875 11.054688 0.0507812 11.140625 0.03125 C 11.222656 0.0078125 11.265625 -0.0507812 11.265625 -0.15625 C 11.265625 -0.1875 11.257812 -0.21875 11.25 -0.25 C 11.238281 -0.289062 11.226562 -0.328125 11.21875 -0.359375 C 11.1875 -0.492188 11.179688 -0.617188 11.203125 -0.734375 C 11.222656 -0.859375 11.242188 -0.988281 11.265625 -1.125 C 11.285156 -1.195312 11.289062 -1.285156 11.28125 -1.390625 C 11.28125 -1.492188 11.234375 -1.554688 11.140625 -1.578125 C 11.054688 -1.597656 10.972656 -1.59375 10.890625 -1.5625 C 10.804688 -1.53125 10.722656 -1.515625 10.640625 -1.515625 C 10.503906 -1.515625 10.414062 -1.519531 10.375 -1.53125 C 10.332031 -1.539062 10.238281 -1.546875 10.09375 -1.546875 C 9.957031 -1.546875 9.816406 -1.546875 9.671875 -1.546875 C 9.523438 -1.546875 9.382812 -1.546875 9.25 -1.546875 C 8.8125 -1.535156 8.375 -1.53125 7.9375 -1.53125 C 7.5 -1.53125 7.066406 -1.53125 6.640625 -1.53125 C 6.210938 -1.53125 5.789062 -1.523438 5.375 -1.515625 C 4.957031 -1.515625 4.539062 -1.519531 4.125 -1.53125 C 4.019531 -1.53125 3.910156 -1.535156 3.796875 -1.546875 C 3.691406 -1.554688 3.585938 -1.550781 3.484375 -1.53125 C 3.410156 -1.519531 3.328125 -1.5 3.234375 -1.46875 C 3.140625 -1.4375 3.054688 -1.453125 2.984375 -1.515625 C 2.953125 -1.546875 2.929688 -1.582031 2.921875 -1.625 C 2.921875 -1.675781 2.921875 -1.726562 2.921875 -1.78125 C 2.941406 -1.945312 2.957031 -2.113281 2.96875 -2.28125 C 2.976562 -2.445312 2.984375 -2.613281 2.984375 -2.78125 C 2.984375 -2.957031 2.984375 -3.140625 2.984375 -3.328125 C 2.984375 -3.515625 2.984375 -3.695312 2.984375 -3.875 C 2.972656 -4.21875 2.960938 -4.566406 2.953125 -4.921875 C 2.953125 -5.285156 2.957031 -5.632812 2.96875 -5.96875 C 2.96875 -6.15625 2.96875 -6.332031 2.96875 -6.5 C 2.976562 -6.675781 3 -6.851562 3.03125 -7.03125 C 3.039062 -7.0625 3.046875 -7.09375 3.046875 -7.125 C 3.046875 -7.164062 3.046875 -7.207031 3.046875 -7.25 C 3.023438 -7.3125 2.984375 -7.351562 2.921875 -7.375 C 2.859375 -7.394531 2.789062 -7.398438 2.71875 -7.390625 C 2.65625 -7.378906 2.59375 -7.367188 2.53125 -7.359375 C 2.46875 -7.347656 2.40625 -7.34375 2.34375 -7.34375 C 2.195312 -7.332031 2.046875 -7.328125 1.890625 -7.328125 C 1.742188 -7.335938 1.59375 -7.351562 1.4375 -7.375 C 1.363281 -7.394531 1.273438 -7.40625 1.171875 -7.40625 C 1.078125 -7.40625 1.007812 -7.359375 0.96875 -7.265625 C 0.9375 -7.148438 0.9375 -7.023438 0.96875 -6.890625 C 1.007812 -6.765625 1.03125 -6.648438 1.03125 -6.546875 C 1.050781 -6.398438 1.0625 -6.253906 1.0625 -6.109375 C 1.0625 -5.972656 1.0625 -5.832031 1.0625 -5.6875 C 1.0625 -5.414062 1.054688 -5.144531 1.046875 -4.875 C 1.035156 -4.601562 1.03125 -4.328125 1.03125 -4.046875 C 1.03125 -3.546875 1.03125 -3.046875 1.03125 -2.546875 C 1.03125 -2.054688 1.03125 -1.5625 1.03125 -1.0625 C 1.03125 -0.945312 1.03125 -0.828125 1.03125 -0.703125 C 1.03125 -0.585938 1.015625 -0.46875 0.984375 -0.34375 C 0.972656 -0.269531 0.960938 -0.207031 0.953125 -0.15625 C 0.953125 -0.101562 0.976562 -0.0507812 1.03125 0 Z M 1.03125 0 "/></g></g></g><g fill="#000000" fill-opacity="1"><g transform="translate(206.726742, 11.504273)"><g><path d="M 0.59375 -5.875 C 0.582031 -5.894531 0.570312 -5.910156 0.5625 -5.921875 C 0.5625 -5.929688 0.550781 -5.945312 0.53125 -5.96875 C 0.519531 -6 0.507812 -6.035156 0.5 -6.078125 C 0.5 -6.117188 0.5 -6.160156 0.5 -6.203125 C 0.519531 -6.359375 0.53125 -6.515625 0.53125 -6.671875 C 0.53125 -6.828125 0.535156 -6.984375 0.546875 -7.140625 C 0.546875 -7.210938 0.5625 -7.265625 0.59375 -7.296875 C 0.613281 -7.328125 0.640625 -7.34375 0.671875 -7.34375 C 0.710938 -7.34375 0.75 -7.34375 0.78125 -7.34375 C 2.5 -7.34375 4.210938 -7.34375 5.921875 -7.34375 C 7.640625 -7.34375 9.359375 -7.335938 11.078125 -7.328125 C 11.097656 -7.328125 11.117188 -7.320312 11.140625 -7.3125 C 11.171875 -7.3125 11.195312 -7.300781 11.21875 -7.28125 C 11.238281 -7.257812 11.25 -7.21875 11.25 -7.15625 L 11.25 -6.078125 C 11.25 -6.023438 11.242188 -5.976562 11.234375 -5.9375 C 11.234375 -5.894531 11.21875 -5.863281 11.1875 -5.84375 C 11.15625 -5.8125 11.125 -5.789062 11.09375 -5.78125 C 11.0625 -5.78125 11.023438 -5.78125 10.984375 -5.78125 C 10.359375 -5.800781 9.734375 -5.8125 9.109375 -5.8125 C 8.484375 -5.820312 7.851562 -5.832031 7.21875 -5.84375 C 7.132812 -5.84375 7.046875 -5.832031 6.953125 -5.8125 C 6.859375 -5.800781 6.785156 -5.757812 6.734375 -5.6875 C 6.691406 -5.632812 6.664062 -5.578125 6.65625 -5.515625 C 6.65625 -5.453125 6.65625 -5.390625 6.65625 -5.328125 C 6.664062 -4.484375 6.675781 -3.632812 6.6875 -2.78125 C 6.695312 -1.9375 6.703125 -1.085938 6.703125 -0.234375 C 6.703125 -0.203125 6.703125 -0.171875 6.703125 -0.140625 C 6.703125 -0.117188 6.691406 -0.0976562 6.671875 -0.078125 C 6.640625 -0.046875 6.59375 -0.03125 6.53125 -0.03125 C 6.320312 0 6.113281 0.015625 5.90625 0.015625 C 5.695312 0.015625 5.488281 0.015625 5.28125 0.015625 C 5.175781 0.015625 5.070312 0 4.96875 -0.03125 C 4.875 -0.0625 4.796875 -0.117188 4.734375 -0.203125 C 4.710938 -0.242188 4.703125 -0.289062 4.703125 -0.34375 C 4.703125 -0.40625 4.703125 -0.460938 4.703125 -0.515625 C 4.710938 -1.328125 4.722656 -2.132812 4.734375 -2.9375 C 4.753906 -3.738281 4.773438 -4.539062 4.796875 -5.34375 C 4.796875 -5.425781 4.785156 -5.515625 4.765625 -5.609375 C 4.742188 -5.703125 4.695312 -5.769531 4.625 -5.8125 C 4.59375 -5.820312 4.5625 -5.828125 4.53125 -5.828125 C 4.5 -5.828125 4.460938 -5.828125 4.421875 -5.828125 C 3.859375 -5.816406 3.289062 -5.804688 2.71875 -5.796875 C 2.15625 -5.796875 1.585938 -5.789062 1.015625 -5.78125 C 0.941406 -5.78125 0.867188 -5.785156 0.796875 -5.796875 C 0.722656 -5.804688 0.65625 -5.832031 0.59375 -5.875 Z M 0.59375 -5.875 "/></g></g></g><g fill="#000000" fill-opacity="1"><g transform="translate(221.623039, 11.504273)"><g><path d="M 1 0.015625 C 1.019531 0.015625 1.035156 0.0195312 1.046875 0.03125 C 1.054688 0.0390625 1.070312 0.046875 1.09375 0.046875 C 1.132812 0.0664062 1.175781 0.078125 1.21875 0.078125 C 1.269531 0.078125 1.316406 0.078125 1.359375 0.078125 C 2.035156 0.015625 2.710938 -0.0078125 3.390625 0 C 4.078125 0 4.765625 0.00390625 5.453125 0.015625 C 6.140625 0.0351562 6.820312 0.03125 7.5 0 C 8.1875 -0.0390625 8.859375 -0.128906 9.515625 -0.265625 C 9.609375 -0.285156 9.695312 -0.300781 9.78125 -0.3125 C 9.863281 -0.320312 9.953125 -0.34375 10.046875 -0.375 C 10.128906 -0.394531 10.210938 -0.414062 10.296875 -0.4375 C 10.390625 -0.457031 10.476562 -0.484375 10.5625 -0.515625 C 10.914062 -0.628906 11.265625 -0.773438 11.609375 -0.953125 C 11.960938 -1.140625 12.285156 -1.363281 12.578125 -1.625 C 12.878906 -1.882812 13.125 -2.179688 13.3125 -2.515625 C 13.5 -2.847656 13.601562 -3.207031 13.625 -3.59375 C 13.644531 -3.988281 13.585938 -4.367188 13.453125 -4.734375 C 13.316406 -5.097656 13.113281 -5.410156 12.84375 -5.671875 C 12.78125 -5.734375 12.710938 -5.785156 12.640625 -5.828125 C 12.566406 -5.878906 12.488281 -5.9375 12.40625 -6 C 11.820312 -6.425781 11.164062 -6.734375 10.4375 -6.921875 C 9.71875 -7.117188 9 -7.25 8.28125 -7.3125 C 7.34375 -7.382812 6.398438 -7.40625 5.453125 -7.375 C 4.503906 -7.351562 3.554688 -7.34375 2.609375 -7.34375 C 2.472656 -7.34375 2.3125 -7.359375 2.125 -7.390625 C 1.945312 -7.421875 1.773438 -7.4375 1.609375 -7.4375 C 1.441406 -7.4375 1.289062 -7.394531 1.15625 -7.3125 C 1.03125 -7.21875 0.96875 -7.09375 0.96875 -6.9375 C 0.96875 -6.78125 0.972656 -6.632812 0.984375 -6.5 C 0.984375 -6.195312 0.984375 -5.898438 0.984375 -5.609375 C 0.992188 -5.316406 1 -5.019531 1 -4.71875 L 1 -4.1875 C 1 -3.863281 1 -3.53125 1 -3.1875 C 1 -2.851562 1.003906 -2.523438 1.015625 -2.203125 C 1.015625 -2.035156 1.007812 -1.867188 1 -1.703125 C 1 -1.535156 1 -1.367188 1 -1.203125 C 1 -1.097656 1.007812 -0.992188 1.03125 -0.890625 C 1.0625 -0.796875 1.070312 -0.703125 1.0625 -0.609375 C 1.050781 -0.546875 1.03125 -0.472656 1 -0.390625 C 0.96875 -0.316406 0.945312 -0.242188 0.9375 -0.171875 C 0.925781 -0.0976562 0.945312 -0.0351562 1 0.015625 Z M 2.96875 -1.375 C 2.96875 -1.375 2.960938 -1.375 2.953125 -1.375 C 2.953125 -1.375 2.953125 -1.378906 2.953125 -1.390625 C 2.910156 -1.429688 2.894531 -1.492188 2.90625 -1.578125 C 2.914062 -1.660156 2.925781 -1.75 2.9375 -1.84375 C 2.957031 -1.9375 2.96875 -2.015625 2.96875 -2.078125 L 2.96875 -3.921875 C 2.96875 -4.054688 2.96875 -4.144531 2.96875 -4.1875 C 2.96875 -4.226562 2.96875 -4.3125 2.96875 -4.4375 C 2.96875 -4.5625 2.960938 -4.644531 2.953125 -4.6875 C 2.953125 -4.726562 2.953125 -4.816406 2.953125 -4.953125 C 2.953125 -5.078125 2.957031 -5.160156 2.96875 -5.203125 C 2.976562 -5.242188 2.984375 -5.328125 2.984375 -5.453125 C 2.984375 -5.578125 2.972656 -5.675781 2.953125 -5.75 C 2.929688 -5.832031 2.941406 -5.890625 2.984375 -5.921875 C 3.023438 -5.960938 3.132812 -5.984375 3.3125 -5.984375 L 5.171875 -5.984375 C 5.691406 -5.984375 6.226562 -5.984375 6.78125 -5.984375 C 7.332031 -5.992188 7.878906 -5.972656 8.421875 -5.921875 C 8.972656 -5.867188 9.5 -5.757812 10 -5.59375 C 10.257812 -5.507812 10.5 -5.398438 10.71875 -5.265625 C 10.9375 -5.128906 11.132812 -4.957031 11.3125 -4.75 C 11.363281 -4.675781 11.410156 -4.601562 11.453125 -4.53125 C 11.503906 -4.457031 11.546875 -4.378906 11.578125 -4.296875 C 11.710938 -3.941406 11.710938 -3.601562 11.578125 -3.28125 C 11.453125 -2.96875 11.253906 -2.691406 10.984375 -2.453125 C 10.722656 -2.210938 10.4375 -2.035156 10.125 -1.921875 C 9.570312 -1.710938 9.007812 -1.566406 8.4375 -1.484375 C 7.875 -1.410156 7.304688 -1.367188 6.734375 -1.359375 C 6.160156 -1.359375 5.582031 -1.359375 5 -1.359375 C 4.414062 -1.367188 3.84375 -1.351562 3.28125 -1.3125 C 3.226562 -1.300781 3.171875 -1.300781 3.109375 -1.3125 C 3.046875 -1.320312 3 -1.34375 2.96875 -1.375 Z M 2.96875 -1.375 "/></g></g></g></g></g></svg>